<svg width="15" height="15" viewBox="0 0 15 15" fill="none" xmlns="http://www.w3.org/2000/svg">
<g clip-path="url(#clip0_8_278)">
<path fill-rule="evenodd" clip-rule="evenodd" d="M7.50621 0C3.35547 0 0 3.3802 0 7.56198C0 10.9047 2.14996 13.7342 5.13253 14.7357C5.50543 14.811 5.64202 14.573 5.64202 14.3728C5.64202 14.1975 5.62973 13.5966 5.62973 12.9705C3.54169 13.4213 3.10687 12.069 3.10687 12.069C2.77131 11.1926 2.27411 10.9674 2.27411 10.9674C1.59069 10.5041 2.32389 10.5041 2.32389 10.5041C3.08198 10.5542 3.47977 11.2804 3.47977 11.2804C4.15074 12.4321 5.23194 12.1067 5.66691 11.9063C5.72899 11.418 5.92796 11.08 6.13922 10.8922C4.47386 10.7169 2.72168 10.0659 2.72168 7.16127C2.72168 6.33497 3.01975 5.65892 3.49206 5.13315C3.41754 4.94539 3.1565 4.16902 3.56673 3.12992C3.56673 3.12992 4.20052 2.92956 5.62958 3.90613C6.24141 3.74061 6.87238 3.6564 7.50621 3.65569C8.13999 3.65569 8.78607 3.74342 9.38268 3.90613C10.8119 2.92956 11.4457 3.12992 11.4457 3.12992C11.8559 4.16902 11.5947 4.94539 11.5202 5.13315C12.005 5.65892 12.2907 6.33497 12.2907 7.16127C12.2907 10.0659 10.5386 10.7043 8.86075 10.8922C9.13424 11.1301 9.37024 11.5807 9.37024 12.2944C9.37024 13.3085 9.35794 14.1223 9.35794 14.3726C9.35794 14.573 9.49469 14.811 9.86743 14.7358C12.85 13.7341 15 10.9047 15 7.56198C15.0123 3.3802 11.6445 0 7.50621 0Z" fill="white"/>
</g>
<defs>
<clipPath id="clip0_8_278">
<rect width="15" height="15" fill="white"/>
</clipPath>
</defs>
</svg>
