<svg width="52" height="12" viewBox="0 0 52 12" fill="none" xmlns="http://www.w3.org/2000/svg">
<path d="M1.848 7.632C1.792 7.632 1.732 7.632 1.668 7.632C1.612 7.632 1.564 7.628 1.524 7.62C1.452 7.612 1.332 7.584 1.164 7.536C0.996 7.488 0.82 7.424 0.636 7.344C0.46 7.272 0.308 7.188 0.18 7.092C0.0600002 6.996 1.49012e-07 6.892 1.49012e-07 6.78C1.49012e-07 6.732 0.0280001 6.708 0.0840001 6.708C0.22 6.708 0.356 6.744 0.492 6.816C0.636 6.888 0.784 6.932 0.936 6.948C1 6.956 1.068 6.964 1.14 6.972C1.22 6.972 1.308 6.972 1.404 6.972C1.604 6.972 1.812 6.956 2.028 6.924C2.244 6.884 2.428 6.816 2.58 6.72C2.732 6.624 2.812 6.488 2.82 6.312C2.82 6.2 2.748 6.06 2.604 5.892C2.46 5.716 2.276 5.516 2.052 5.292C1.836 5.06 1.62 4.808 1.404 4.536C1.188 4.256 1.004 3.956 0.852 3.636C0.708 3.316 0.636 2.984 0.636 2.64C0.636 2.208 0.74 1.832 0.948 1.512C1.156 1.192 1.428 0.931999 1.764 0.731999C2.1 0.523999 2.468 0.371999 2.868 0.275998C3.268 0.171999 3.66 0.119999 4.044 0.119999C4.236 0.119999 4.416 0.131999 4.584 0.155998C4.8 0.179999 5.032 0.235999 5.28 0.323998C5.536 0.403999 5.756 0.531999 5.94 0.707999C6.124 0.875999 6.216 1.1 6.216 1.38C6.216 1.676 6.12 1.96 5.928 2.232C5.744 2.504 5.516 2.744 5.244 2.952C4.98 3.152 4.72 3.304 4.464 3.408C4.416 3.432 4.368 3.444 4.32 3.444C4.28 3.428 4.26 3.408 4.26 3.384C4.3 3.296 4.396 3.176 4.548 3.024C4.708 2.864 4.88 2.688 5.064 2.496C5.256 2.304 5.42 2.1 5.556 1.884C5.7 1.66 5.772 1.44 5.772 1.224C5.772 1.08 5.72 0.971999 5.616 0.899999C5.512 0.819999 5.388 0.759999 5.244 0.719998C5.108 0.679998 4.988 0.651999 4.884 0.635999C4.836 0.627999 4.788 0.623999 4.74 0.623999C4.692 0.623999 4.64 0.623999 4.584 0.623999C4.224 0.623999 3.836 0.687999 3.42 0.815999C3.012 0.935998 2.624 1.108 2.256 1.332C1.888 1.556 1.588 1.824 1.356 2.136C1.124 2.44 1.008 2.78 1.008 3.156C1.008 3.38 1.088 3.62 1.248 3.876C1.408 4.124 1.608 4.38 1.848 4.644C2.088 4.908 2.328 5.172 2.568 5.436C2.808 5.692 3.008 5.944 3.168 6.192C3.328 6.432 3.408 6.656 3.408 6.864C3.408 7.064 3.32 7.22 3.144 7.332C2.976 7.444 2.768 7.52 2.52 7.56C2.28 7.608 2.056 7.632 1.848 7.632ZM7.46691 7.308C7.30691 7.308 7.13891 7.24 6.96291 7.104C6.78691 6.968 6.69891 6.812 6.69891 6.636C6.69891 6.476 6.73891 6.288 6.81891 6.072C6.89891 5.856 6.99091 5.66 7.09491 5.484C6.84691 5.748 6.59491 6.012 6.33891 6.276C6.09091 6.54 5.84691 6.808 5.60691 7.08C5.52691 7.176 5.43091 7.224 5.31891 7.224C5.16691 7.224 5.02291 7.144 4.88691 6.984C4.75891 6.824 4.69491 6.672 4.69491 6.528C4.69491 6.488 4.69891 6.456 4.70691 6.432C4.76291 6.28 4.82691 6.132 4.89891 5.988C4.97891 5.836 5.05891 5.692 5.13891 5.556C5.22691 5.404 5.31891 5.26 5.41491 5.124C5.51891 4.98 5.62291 4.836 5.72691 4.692C5.76691 4.644 5.80291 4.596 5.83491 4.548C5.87491 4.492 5.91091 4.436 5.94291 4.38C5.96691 4.34 5.97891 4.292 5.97891 4.236C5.97891 4.18 5.97491 4.132 5.96691 4.092C6.04691 3.988 6.15491 3.888 6.29091 3.792C6.42691 3.688 6.55891 3.636 6.68691 3.636C6.71891 3.636 6.77091 3.648 6.84291 3.672C6.92291 3.688 6.99491 3.712 7.05891 3.744C7.13091 3.768 7.16691 3.796 7.16691 3.828C7.16691 3.86 7.15091 3.892 7.11891 3.924C7.07891 3.964 7.03491 4.004 6.98691 4.044C6.93891 4.084 6.89491 4.128 6.85491 4.176C6.67091 4.36 6.49491 4.556 6.32691 4.764C6.15891 4.964 5.99891 5.168 5.84691 5.376C5.79891 5.448 5.72291 5.556 5.61891 5.7C5.52291 5.836 5.43491 5.976 5.35491 6.12C5.27491 6.264 5.23491 6.38 5.23491 6.468C5.23491 6.548 5.27091 6.588 5.34291 6.588C5.42291 6.588 5.53891 6.536 5.69091 6.432C5.85091 6.32 6.02291 6.18 6.20691 6.012C6.39091 5.836 6.57091 5.656 6.74691 5.472C6.93091 5.288 7.09091 5.12 7.22691 4.968C7.37091 4.816 7.47091 4.704 7.52691 4.632C7.69491 4.432 7.85891 4.208 8.01891 3.96C8.08291 3.864 8.15891 3.78 8.24691 3.708C8.34291 3.628 8.44691 3.588 8.55891 3.588C8.62291 3.588 8.70291 3.596 8.79891 3.612C8.90291 3.62 8.95491 3.668 8.95491 3.756C8.95491 3.788 8.94291 3.82 8.91891 3.852C8.90291 3.884 8.88291 3.912 8.85891 3.936C8.59491 4.208 8.34291 4.496 8.10291 4.8C7.87091 5.096 7.67491 5.42 7.51491 5.772C7.45891 5.892 7.40291 6.052 7.34691 6.252C7.29091 6.444 7.26291 6.608 7.26291 6.744C7.26291 6.88 7.31491 6.948 7.41891 6.948C7.49091 6.948 7.56291 6.924 7.63491 6.876C7.72291 6.828 7.84291 6.732 7.99491 6.588C8.14691 6.436 8.30691 6.268 8.47491 6.084C8.65091 5.892 8.81491 5.712 8.96691 5.544C9.11891 5.368 9.23491 5.232 9.31491 5.136C9.33091 5.12 9.34691 5.108 9.36291 5.1C9.37891 5.084 9.39491 5.076 9.41091 5.076C9.46691 5.076 9.49491 5.108 9.49491 5.172C9.49491 5.204 9.48691 5.228 9.47091 5.244C9.45491 5.26 9.43891 5.28 9.42291 5.304C9.17491 5.592 8.92691 5.884 8.67891 6.18C8.43891 6.476 8.19491 6.768 7.94691 7.056C7.89091 7.128 7.82291 7.188 7.74291 7.236C7.66291 7.284 7.57091 7.308 7.46691 7.308ZM10.8574 2.7C10.6734 2.7 10.5814 2.632 10.5814 2.496C10.5814 2.4 10.6334 2.296 10.7374 2.184C10.8414 2.072 10.9934 1.992 11.1934 1.944C11.3134 1.912 11.4094 1.896 11.4814 1.896C11.5614 1.888 11.6374 1.872 11.7094 1.848C11.6774 2 11.6094 2.164 11.5054 2.34C11.4094 2.516 11.2814 2.624 11.1214 2.664C11.0414 2.688 10.9534 2.7 10.8574 2.7ZM5.52938 11.82C5.16137 11.82 4.97737 11.636 4.97737 11.268C4.97737 11.228 4.98137 11.188 4.98937 11.148C4.98937 11.108 4.99337 11.068 5.00137 11.028C5.06537 10.74 5.20138 10.464 5.40937 10.2C5.61738 9.936 5.86138 9.688 6.14138 9.456C6.42137 9.232 6.70937 9.02 7.00538 8.82C7.29338 8.628 7.55338 8.46 7.78538 8.316C7.92138 8.228 8.09738 8.12 8.31338 7.992C8.52138 7.864 8.74538 7.724 8.98538 7.572C9.22538 7.428 9.45338 7.292 9.66938 7.164C9.74938 6.988 9.82538 6.768 9.89738 6.504C9.97738 6.24 10.0454 5.976 10.1014 5.712C10.1574 5.44 10.1894 5.208 10.1974 5.016C10.1654 4.96 10.1294 4.9 10.0894 4.836C10.0494 4.772 10.0294 4.708 10.0294 4.644C10.0294 4.564 10.0494 4.464 10.0894 4.344C10.1294 4.224 10.1854 4.12 10.2574 4.032C10.3294 3.936 10.4134 3.888 10.5094 3.888C10.5254 3.888 10.5414 3.892 10.5574 3.9C10.5734 3.9 10.5894 3.9 10.6054 3.9C10.7174 3.924 10.7894 3.956 10.8214 3.996C10.8614 4.028 10.8814 4.108 10.8814 4.236C10.8814 4.604 10.8374 5 10.7494 5.424C10.6614 5.848 10.5614 6.236 10.4494 6.588C10.6094 6.46 10.7574 6.336 10.8934 6.216C11.0374 6.096 11.1774 5.964 11.3134 5.82C11.4414 5.692 11.5614 5.56 11.6734 5.424C11.7934 5.288 11.9174 5.16 12.0454 5.04C12.0614 5.024 12.0774 5.012 12.0934 5.004C12.1174 4.988 12.1414 4.98 12.1654 4.98C12.2134 4.98 12.2374 5.004 12.2374 5.052C12.2374 5.092 12.1774 5.18 12.0574 5.316C11.9454 5.444 11.8014 5.596 11.6254 5.772C11.4574 5.948 11.2774 6.128 11.0854 6.312C10.9014 6.488 10.7334 6.648 10.5814 6.792C10.4374 6.928 10.3374 7.02 10.2814 7.068C9.91338 8.036 9.43338 8.876 8.84138 9.588C8.25738 10.308 7.51338 10.928 6.60938 11.448C6.45737 11.536 6.28537 11.62 6.09338 11.7C5.90138 11.78 5.71338 11.82 5.52938 11.82ZM5.80538 11.52C6.02138 11.52 6.25738 11.44 6.51338 11.28C6.76138 11.128 7.00938 10.936 7.25738 10.704C7.50538 10.472 7.73338 10.24 7.94138 10.008C8.14138 9.784 8.30138 9.596 8.42138 9.444C8.55738 9.26 8.68938 9.076 8.81738 8.892C8.94538 8.716 9.06538 8.532 9.17738 8.34C9.34538 8.06 9.48538 7.788 9.59738 7.524C9.60538 7.5 9.59738 7.484 9.57338 7.476C9.55738 7.476 9.54938 7.476 9.54938 7.476C9.30138 7.652 9.04938 7.824 8.79338 7.992C8.54538 8.168 8.29338 8.34 8.03738 8.508C7.90938 8.588 7.73738 8.704 7.52138 8.856C7.30538 9.016 7.07338 9.192 6.82537 9.384C6.57738 9.584 6.34138 9.788 6.11737 9.996C5.89337 10.212 5.70937 10.42 5.56537 10.62C5.42137 10.828 5.34938 11.012 5.34938 11.172C5.34938 11.3 5.40137 11.388 5.50537 11.436C5.60137 11.492 5.70137 11.52 5.80538 11.52ZM14.2624 2.7C14.0784 2.7 13.9864 2.632 13.9864 2.496C13.9864 2.4 14.0384 2.296 14.1424 2.184C14.2464 2.072 14.3984 1.992 14.5984 1.944C14.7184 1.912 14.8144 1.896 14.8864 1.896C14.9664 1.888 15.0424 1.872 15.1144 1.848C15.0824 2 15.0144 2.164 14.9104 2.34C14.8144 2.516 14.6864 2.624 14.5264 2.664C14.4464 2.688 14.3584 2.7 14.2624 2.7ZM12.3424 7.476C12.2144 7.476 12.0944 7.424 11.9824 7.32C11.8784 7.216 11.8144 7.104 11.7904 6.984C11.8144 6.832 11.8664 6.648 11.9464 6.432C12.0344 6.208 12.1344 5.976 12.2464 5.736C12.3584 5.496 12.4704 5.272 12.5824 5.064C12.6944 4.848 12.7904 4.676 12.8704 4.548C12.7184 4.684 12.5544 4.836 12.3784 5.004C12.2104 5.172 12.0504 5.328 11.8984 5.472C11.8904 5.48 11.8704 5.496 11.8384 5.52C11.8144 5.544 11.7904 5.556 11.7664 5.556C11.7104 5.556 11.6824 5.532 11.6824 5.484C11.6824 5.444 11.6984 5.408 11.7304 5.376C11.9464 5.136 12.1704 4.896 12.4024 4.656C12.6424 4.416 12.8744 4.168 13.0984 3.912C13.1704 3.824 13.2304 3.756 13.2784 3.708C13.3344 3.652 13.4184 3.624 13.5304 3.624C13.5784 3.624 13.6504 3.636 13.7464 3.66C13.8504 3.676 13.9344 3.708 13.9984 3.756C14.0704 3.804 14.0824 3.864 14.0344 3.936C13.9784 4.024 13.8824 4.168 13.7464 4.368C13.6104 4.568 13.4544 4.796 13.2784 5.052C13.1104 5.308 12.9424 5.568 12.7744 5.832C12.6144 6.088 12.4824 6.32 12.3784 6.528C12.2744 6.736 12.2224 6.892 12.2224 6.996C12.2224 7.044 12.2384 7.068 12.2704 7.068C12.3184 7.068 12.3984 7.024 12.5104 6.936C12.6304 6.848 12.7464 6.756 12.8584 6.66C12.9784 6.556 13.0584 6.488 13.0984 6.456C13.3304 6.256 13.5584 6.052 13.7824 5.844C14.0064 5.628 14.2184 5.404 14.4184 5.172C14.4344 5.156 14.4544 5.132 14.4784 5.1C14.5104 5.068 14.5424 5.052 14.5744 5.052C14.6144 5.052 14.6344 5.076 14.6344 5.124C14.6344 5.18 14.6144 5.236 14.5744 5.292C14.4704 5.42 14.3544 5.548 14.2264 5.676C14.0984 5.796 13.9784 5.916 13.8664 6.036C13.6584 6.244 13.4544 6.452 13.2544 6.66C13.0624 6.86 12.8704 7.068 12.6784 7.284C12.6384 7.332 12.5864 7.376 12.5224 7.416C12.4664 7.456 12.4064 7.476 12.3424 7.476ZM14.9942 7.536C14.8502 7.536 14.7262 7.488 14.6222 7.392C14.5262 7.296 14.4502 7.18 14.3942 7.044C14.3462 6.9 14.3222 6.764 14.3222 6.636C14.3222 6.508 14.3382 6.384 14.3702 6.264C14.4022 6.136 14.4462 6.012 14.5022 5.892C14.6062 5.66 14.7302 5.404 14.8742 5.124C15.0262 4.836 15.1862 4.544 15.3542 4.248C15.5302 3.944 15.7062 3.668 15.8822 3.42C15.7462 3.476 15.5862 3.54 15.4022 3.612C15.2262 3.676 15.1102 3.708 15.0542 3.708C15.0222 3.7 14.9982 3.676 14.9822 3.636C14.9742 3.596 14.9702 3.556 14.9702 3.516C14.9702 3.348 15.0502 3.236 15.2102 3.18C15.4582 3.1 15.7902 3.028 16.2062 2.964C16.5102 2.564 16.8382 2.164 17.1902 1.764C17.5502 1.364 17.9142 1.048 18.2822 0.815999C18.3542 0.767999 18.4342 0.791999 18.5222 0.887999C18.6102 0.975999 18.6582 1.068 18.6662 1.164C18.6662 1.252 18.6342 1.312 18.5702 1.344C18.2502 1.544 17.9542 1.772 17.6822 2.028C17.4102 2.276 17.1302 2.56 16.8422 2.88C17.0022 2.856 17.1422 2.84 17.2622 2.832C17.3822 2.824 17.4582 2.82 17.4902 2.82C17.5142 2.82 17.5542 2.82 17.6102 2.82C17.6662 2.812 17.7262 2.808 17.7902 2.808C17.8862 2.808 17.9742 2.816 18.0542 2.832C18.1422 2.848 18.1862 2.876 18.1862 2.916C18.1862 2.948 18.1502 2.976 18.0782 3C18.0142 3.016 17.9422 3.028 17.8622 3.036C17.7822 3.036 17.7222 3.04 17.6822 3.048C17.4422 3.08 17.2262 3.112 17.0342 3.144C16.8502 3.176 16.6782 3.216 16.5182 3.264C16.3342 3.488 16.1902 3.676 16.0862 3.828C15.9902 3.98 15.9062 4.12 15.8342 4.248C15.7702 4.368 15.6902 4.504 15.5942 4.656C15.3862 5.056 15.2062 5.464 15.0542 5.88C14.9102 6.296 14.8382 6.632 14.8382 6.888C14.8382 6.928 14.8422 6.96 14.8502 6.984C14.8582 7.008 14.8822 7.02 14.9222 7.02C14.9702 7.02 15.0142 7.008 15.0542 6.984C15.1022 6.952 15.1422 6.92 15.1742 6.888C15.2862 6.8 15.3902 6.7 15.4862 6.588C15.5902 6.468 15.6902 6.356 15.7862 6.252C15.9622 6.06 16.1422 5.872 16.3262 5.688C16.5102 5.504 16.6902 5.32 16.8662 5.136C16.8822 5.12 16.8982 5.108 16.9142 5.1C16.9302 5.084 16.9462 5.076 16.9622 5.076C17.0182 5.076 17.0462 5.108 17.0462 5.172C17.0462 5.196 17.0302 5.232 16.9982 5.28C16.9022 5.408 16.7982 5.536 16.6862 5.664C16.5742 5.784 16.4662 5.908 16.3622 6.036C16.1542 6.284 15.9462 6.528 15.7382 6.768C15.5382 7.008 15.3382 7.256 15.1382 7.512C15.1142 7.52 15.0902 7.524 15.0662 7.524C15.0422 7.532 15.0182 7.536 14.9942 7.536ZM18.7043 7.332C18.6323 7.332 18.5483 7.3 18.4523 7.236C18.3643 7.172 18.2883 7.1 18.2243 7.02C18.1603 6.932 18.1283 6.852 18.1283 6.78C18.1283 6.66 18.1723 6.5 18.2603 6.3C18.3483 6.092 18.4483 5.888 18.5603 5.688C18.6803 5.488 18.7723 5.34 18.8363 5.244C18.7243 5.34 18.5803 5.496 18.4043 5.712C18.2363 5.92 18.0523 6.144 17.8523 6.384C17.6603 6.616 17.4723 6.816 17.2883 6.984C17.1123 7.152 16.9603 7.236 16.8323 7.236C16.6563 7.236 16.5123 7.176 16.4003 7.056C16.2963 6.928 16.2443 6.776 16.2443 6.6C16.2443 6.36 16.3123 6.104 16.4483 5.832C16.5843 5.552 16.7603 5.284 16.9763 5.028C17.2003 4.764 17.4403 4.524 17.6963 4.308C17.9603 4.092 18.2163 3.92 18.4643 3.792C18.7203 3.664 18.9483 3.6 19.1483 3.6C19.3643 3.6 19.5403 3.652 19.6763 3.756C19.8123 3.852 19.8803 4 19.8803 4.2C19.8803 4.232 19.8723 4.292 19.8563 4.38C19.8483 4.468 19.8203 4.512 19.7723 4.512C19.7483 4.512 19.7083 4.476 19.6523 4.404C19.6043 4.332 19.5363 4.26 19.4483 4.188C19.3603 4.116 19.2483 4.08 19.1123 4.08C18.8883 4.08 18.6523 4.164 18.4043 4.332C18.1643 4.492 17.9323 4.7 17.7083 4.956C17.4843 5.204 17.2883 5.46 17.1203 5.724C16.9523 5.988 16.8243 6.216 16.7363 6.408C16.7123 6.464 16.6883 6.524 16.6643 6.588C16.6483 6.652 16.6403 6.716 16.6403 6.78C16.6403 6.852 16.6603 6.888 16.7003 6.888C16.7403 6.888 16.8243 6.844 16.9523 6.756C17.0883 6.668 17.1843 6.604 17.2403 6.564C17.5203 6.364 17.7843 6.136 18.0323 5.88C18.2883 5.624 18.5163 5.36 18.7163 5.088C18.7803 5 18.8403 4.912 18.8963 4.824C18.9523 4.736 19.0083 4.652 19.0643 4.572C19.1043 4.516 19.1443 4.488 19.1843 4.488C19.2723 4.488 19.3563 4.548 19.4363 4.668C19.5243 4.788 19.5683 4.892 19.5683 4.98C19.5683 5.02 19.5603 5.044 19.5443 5.052C19.5363 5.06 19.5123 5.084 19.4723 5.124C19.3523 5.244 19.2323 5.412 19.1123 5.628C19.0003 5.844 18.9003 6.064 18.8123 6.288C18.7323 6.504 18.6723 6.688 18.6323 6.84C18.6243 6.864 18.6163 6.896 18.6083 6.936C18.6083 6.968 18.6283 6.98 18.6683 6.972C18.7483 6.948 18.8763 6.86 19.0523 6.708C19.2363 6.548 19.4323 6.368 19.6403 6.168C19.8563 5.96 20.0483 5.768 20.2163 5.592C20.3923 5.416 20.5083 5.292 20.5643 5.22C20.5803 5.204 20.5963 5.188 20.6123 5.172C20.6363 5.148 20.6603 5.136 20.6843 5.136C20.7403 5.136 20.7683 5.164 20.7683 5.22C20.7683 5.252 20.7043 5.348 20.5763 5.508C20.4483 5.66 20.2883 5.84 20.0963 6.048C19.9043 6.248 19.7083 6.448 19.5083 6.648C19.3083 6.84 19.1323 7.004 18.9803 7.14C18.8363 7.268 18.7443 7.332 18.7043 7.332ZM28.6105 7.428C28.4745 7.428 28.3465 7.396 28.2265 7.332C28.1065 7.276 27.9945 7.2 27.8905 7.104C27.7465 6.96 27.5785 6.76 27.3865 6.504C27.1945 6.248 26.9985 5.972 26.7985 5.676C26.6065 5.372 26.4225 5.084 26.2465 4.812C26.0785 4.532 25.9425 4.296 25.8385 4.104C25.6145 4.184 25.3745 4.32 25.1185 4.512C24.8625 4.696 24.6225 4.92 24.3985 5.184C24.1825 5.44 24.0065 5.708 23.8705 5.988C23.7345 6.268 23.6745 6.54 23.6905 6.804C23.6985 6.844 23.7105 6.888 23.7265 6.936C23.7425 6.984 23.7785 7.008 23.8345 7.008C23.8825 7.008 23.9065 7.048 23.9065 7.128C23.9065 7.16 23.8945 7.192 23.8705 7.224C23.8545 7.264 23.8225 7.284 23.7745 7.284C23.5985 7.284 23.4745 7.224 23.4025 7.104C23.3305 6.976 23.2945 6.828 23.2945 6.66C23.2945 6.396 23.3545 6.076 23.4745 5.7C23.5945 5.316 23.7505 4.912 23.9425 4.488C24.1345 4.056 24.3385 3.632 24.5545 3.216C24.7705 2.792 24.9745 2.404 25.1665 2.052C25.3585 1.7 25.5185 1.416 25.6465 1.2C25.7505 1.032 25.8505 0.851999 25.9465 0.659998C26.0505 0.459999 26.1625 0.283999 26.2825 0.131999C26.3225 0.0759985 26.3905 0.0399985 26.4865 0.0239987C26.5825 0.00799847 26.6585 -1.66893e-06 26.7145 -1.66893e-06C26.7785 -1.66893e-06 26.8505 0.0159984 26.9305 0.0479984C27.0105 0.0719986 27.0545 0.127999 27.0625 0.215998C27.0625 0.271999 27.0465 0.331999 27.0145 0.395999C26.9905 0.451999 26.9625 0.503999 26.9305 0.551998C26.5705 1.136 26.2025 1.716 25.8265 2.292C25.4585 2.868 25.1345 3.472 24.8545 4.104C25.9825 3.568 27.0625 2.96 28.0945 2.28C29.1345 1.592 30.1705 0.907999 31.2025 0.227999C31.2505 0.195999 31.2985 0.167999 31.3465 0.143999C31.4025 0.119998 31.4585 0.107998 31.5145 0.107998C31.5545 0.107998 31.5905 0.119998 31.6225 0.143999C31.6545 0.159999 31.6745 0.187999 31.6825 0.227999C31.6905 0.291999 31.5865 0.411999 31.3705 0.587999C31.1545 0.755999 30.8705 0.955999 30.5185 1.188C30.1665 1.42 29.7865 1.664 29.3785 1.92C28.9705 2.176 28.5705 2.424 28.1785 2.664C27.7865 2.896 27.4425 3.104 27.1465 3.288C26.8585 3.464 26.6585 3.592 26.5465 3.672C26.5785 3.8 26.6465 4 26.7505 4.272C26.8625 4.536 26.9985 4.828 27.1585 5.148C27.3185 5.468 27.4905 5.78 27.6745 6.084C27.8585 6.38 28.0385 6.624 28.2145 6.816C28.3985 7.008 28.5625 7.104 28.7065 7.104C28.8425 7.104 28.9465 7.056 29.0185 6.96C29.0985 6.856 29.1545 6.728 29.1865 6.576C29.2265 6.424 29.2505 6.276 29.2585 6.132C29.2665 5.98 29.2665 5.856 29.2585 5.76C29.2585 5.744 29.2545 5.728 29.2465 5.712C29.2465 5.696 29.2465 5.68 29.2465 5.664C29.2465 5.608 29.2705 5.58 29.3185 5.58C29.3905 5.58 29.4505 5.624 29.4985 5.712C29.5545 5.8 29.5985 5.896 29.6305 6C29.6705 6.104 29.6905 6.184 29.6905 6.24C29.7065 6.44 29.6625 6.632 29.5585 6.816C29.4625 6.992 29.3305 7.136 29.1625 7.248C29.0025 7.368 28.8185 7.428 28.6105 7.428ZM33.0138 7.308C32.8538 7.308 32.6858 7.24 32.5098 7.104C32.3338 6.968 32.2458 6.812 32.2458 6.636C32.2458 6.476 32.2858 6.288 32.3658 6.072C32.4458 5.856 32.5378 5.66 32.6418 5.484C32.3938 5.748 32.1418 6.012 31.8858 6.276C31.6378 6.54 31.3938 6.808 31.1538 7.08C31.0738 7.176 30.9778 7.224 30.8658 7.224C30.7138 7.224 30.5698 7.144 30.4338 6.984C30.3058 6.824 30.2418 6.672 30.2418 6.528C30.2418 6.488 30.2458 6.456 30.2538 6.432C30.3098 6.28 30.3738 6.132 30.4458 5.988C30.5258 5.836 30.6058 5.692 30.6858 5.556C30.7738 5.404 30.8658 5.26 30.9618 5.124C31.0658 4.98 31.1698 4.836 31.2738 4.692C31.3138 4.644 31.3498 4.596 31.3818 4.548C31.4218 4.492 31.4578 4.436 31.4898 4.38C31.5138 4.34 31.5258 4.292 31.5258 4.236C31.5258 4.18 31.5218 4.132 31.5138 4.092C31.5938 3.988 31.7018 3.888 31.8378 3.792C31.9738 3.688 32.1058 3.636 32.2338 3.636C32.2658 3.636 32.3178 3.648 32.3898 3.672C32.4698 3.688 32.5418 3.712 32.6058 3.744C32.6778 3.768 32.7138 3.796 32.7138 3.828C32.7138 3.86 32.6978 3.892 32.6658 3.924C32.6258 3.964 32.5818 4.004 32.5338 4.044C32.4858 4.084 32.4418 4.128 32.4018 4.176C32.2178 4.36 32.0418 4.556 31.8738 4.764C31.7058 4.964 31.5458 5.168 31.3938 5.376C31.3458 5.448 31.2698 5.556 31.1658 5.7C31.0698 5.836 30.9818 5.976 30.9018 6.12C30.8218 6.264 30.7818 6.38 30.7818 6.468C30.7818 6.548 30.8178 6.588 30.8898 6.588C30.9698 6.588 31.0858 6.536 31.2378 6.432C31.3978 6.32 31.5698 6.18 31.7538 6.012C31.9378 5.836 32.1178 5.656 32.2938 5.472C32.4778 5.288 32.6378 5.12 32.7738 4.968C32.9178 4.816 33.0178 4.704 33.0738 4.632C33.2418 4.432 33.4058 4.208 33.5658 3.96C33.6298 3.864 33.7058 3.78 33.7938 3.708C33.8898 3.628 33.9938 3.588 34.1058 3.588C34.1698 3.588 34.2498 3.596 34.3458 3.612C34.4498 3.62 34.5018 3.668 34.5018 3.756C34.5018 3.788 34.4898 3.82 34.4658 3.852C34.4498 3.884 34.4298 3.912 34.4058 3.936C34.1418 4.208 33.8898 4.496 33.6498 4.8C33.4178 5.096 33.2218 5.42 33.0618 5.772C33.0058 5.892 32.9498 6.052 32.8938 6.252C32.8378 6.444 32.8098 6.608 32.8098 6.744C32.8098 6.88 32.8618 6.948 32.9658 6.948C33.0378 6.948 33.1098 6.924 33.1818 6.876C33.2698 6.828 33.3898 6.732 33.5418 6.588C33.6938 6.436 33.8538 6.268 34.0218 6.084C34.1978 5.892 34.3618 5.712 34.5138 5.544C34.6658 5.368 34.7818 5.232 34.8618 5.136C34.8778 5.12 34.8938 5.108 34.9098 5.1C34.9258 5.084 34.9418 5.076 34.9578 5.076C35.0138 5.076 35.0418 5.108 35.0418 5.172C35.0418 5.204 35.0338 5.228 35.0178 5.244C35.0018 5.26 34.9858 5.28 34.9698 5.304C34.7218 5.592 34.4738 5.884 34.2258 6.18C33.9858 6.476 33.7418 6.768 33.4938 7.056C33.4378 7.128 33.3698 7.188 33.2898 7.236C33.2098 7.284 33.1178 7.308 33.0138 7.308ZM39.2123 7.368C39.1243 7.368 39.0203 7.332 38.9003 7.26C38.7803 7.196 38.6723 7.116 38.5763 7.02C38.4883 6.916 38.4443 6.812 38.4443 6.708C38.4443 6.572 38.5003 6.4 38.6123 6.192C38.7243 5.984 38.8603 5.768 39.0203 5.544C39.1883 5.32 39.3483 5.112 39.5003 4.92C39.6603 4.72 39.7883 4.56 39.8843 4.44C39.9963 4.296 40.0483 4.216 40.0403 4.2C40.0323 4.176 40.0283 4.152 40.0283 4.128C39.8043 4.24 39.5523 4.408 39.2723 4.632C38.9923 4.848 38.7243 5.076 38.4683 5.316C38.2123 5.556 38.0043 5.772 37.8443 5.964C37.7323 6.092 37.6243 6.228 37.5203 6.372C37.4243 6.508 37.3283 6.648 37.2323 6.792C37.1763 6.872 37.1043 6.956 37.0163 7.044C36.9363 7.132 36.8443 7.176 36.7403 7.176C36.6843 7.176 36.6323 7.156 36.5843 7.116C36.5443 7.076 36.5243 7.028 36.5243 6.972C36.5243 6.86 36.5963 6.692 36.7403 6.468C36.8923 6.236 37.0483 5.984 37.2083 5.712C37.3123 5.536 37.4243 5.356 37.5443 5.172C37.6723 4.98 37.7803 4.808 37.8683 4.656C37.9643 4.504 38.0123 4.4 38.0123 4.344H38.0003C37.9763 4.344 37.9203 4.364 37.8323 4.404C37.7523 4.444 37.7083 4.468 37.7003 4.476C37.3083 4.74 36.9323 5.068 36.5723 5.46C36.2203 5.852 35.8963 6.224 35.6003 6.576C35.5443 6.648 35.4843 6.724 35.4203 6.804C35.3563 6.876 35.2923 6.948 35.2283 7.02C35.1963 7.052 35.1523 7.08 35.0963 7.104C35.0403 7.12 34.9883 7.128 34.9403 7.128C34.8923 7.128 34.8243 7.112 34.7363 7.08C34.6563 7.048 34.6163 6.992 34.6163 6.912C34.6163 6.816 34.6603 6.676 34.7483 6.492C34.8363 6.308 34.9443 6.1 35.0723 5.868C35.2083 5.636 35.3483 5.408 35.4923 5.184C35.6443 4.952 35.7803 4.744 35.9003 4.56C36.0283 4.368 36.1203 4.228 36.1763 4.14C35.9283 4.356 35.7043 4.556 35.5043 4.74C35.3123 4.916 35.0923 5.156 34.8443 5.46C34.8283 5.476 34.7963 5.508 34.7483 5.556C34.7003 5.604 34.6523 5.632 34.6043 5.64C34.5883 5.64 34.5683 5.628 34.5443 5.604C34.5283 5.58 34.5243 5.56 34.5323 5.544C34.5403 5.504 34.5963 5.424 34.7003 5.304C34.8043 5.176 34.9323 5.032 35.0843 4.872C35.2363 4.712 35.3883 4.552 35.5403 4.392C35.6923 4.232 35.8243 4.092 35.9363 3.972C36.0563 3.852 36.1283 3.776 36.1523 3.744C36.3283 3.56 36.4843 3.412 36.6203 3.3C36.7643 3.188 36.9003 3.132 37.0283 3.132C37.1003 3.132 37.1843 3.164 37.2803 3.228C37.3763 3.292 37.4243 3.368 37.4243 3.456C37.4243 3.488 37.4163 3.508 37.4003 3.516C37.0403 3.812 36.7203 4.152 36.4403 4.536C36.1603 4.912 35.8963 5.288 35.6483 5.664C35.6403 5.672 35.6123 5.716 35.5643 5.796C35.5243 5.876 35.4763 5.964 35.4203 6.06C35.3643 6.156 35.3163 6.24 35.2763 6.312C35.2363 6.384 35.2203 6.416 35.2283 6.408C35.6523 6.008 36.0963 5.584 36.5603 5.136C37.0323 4.68 37.4883 4.268 37.9283 3.9C37.9923 3.844 38.0643 3.796 38.1443 3.756C38.2243 3.716 38.3083 3.696 38.3963 3.696C38.4923 3.696 38.5683 3.728 38.6243 3.792C38.6883 3.848 38.7203 3.924 38.7203 4.02C38.7203 4.124 38.6883 4.228 38.6243 4.332C38.5603 4.436 38.5003 4.532 38.4443 4.62C38.3643 4.764 38.2763 4.908 38.1803 5.052C38.0923 5.196 38.0283 5.312 37.9883 5.4C38.3563 5.072 38.7083 4.756 39.0443 4.452C39.3803 4.14 39.7203 3.872 40.0643 3.648C40.1443 3.592 40.2403 3.564 40.3523 3.564C40.4243 3.564 40.5163 3.576 40.6283 3.6C40.7483 3.624 40.8523 3.66 40.9403 3.708C41.0363 3.756 41.0843 3.824 41.0843 3.912C41.0843 3.96 41.0683 4.008 41.0363 4.056C41.0043 4.096 40.9683 4.132 40.9283 4.164L40.3643 4.644C40.2603 4.74 40.1323 4.876 39.9803 5.052C39.8363 5.22 39.6923 5.408 39.5483 5.616C39.4123 5.816 39.2963 6.024 39.2003 6.24C39.1123 6.456 39.0683 6.656 39.0683 6.84C39.0683 6.952 39.0963 7.008 39.1523 7.008C39.1843 7.008 39.2203 7 39.2603 6.984C39.3003 6.96 39.3443 6.936 39.3923 6.912C39.5603 6.816 39.7403 6.676 39.9323 6.492C40.1243 6.308 40.3123 6.112 40.4963 5.904C40.6883 5.696 40.8563 5.512 41.0003 5.352C41.1443 5.192 41.2523 5.092 41.3243 5.052C41.3403 5.036 41.3603 5.032 41.3843 5.04C41.4163 5.048 41.4323 5.064 41.4323 5.088C41.4323 5.12 41.4163 5.156 41.3843 5.196C41.3523 5.236 41.3283 5.268 41.3123 5.292C41.1763 5.452 41.0483 5.608 40.9283 5.76C40.8163 5.904 40.6883 6.056 40.5443 6.216C40.3763 6.408 40.1883 6.612 39.9803 6.828C39.7803 7.036 39.5683 7.204 39.3443 7.332C39.3123 7.356 39.2683 7.368 39.2123 7.368ZM43.0441 7.332C42.9721 7.332 42.8881 7.3 42.7921 7.236C42.7041 7.172 42.6281 7.1 42.5641 7.02C42.5001 6.932 42.4681 6.852 42.4681 6.78C42.4681 6.66 42.5121 6.5 42.6001 6.3C42.6881 6.092 42.7881 5.888 42.9001 5.688C43.0201 5.488 43.1121 5.34 43.1761 5.244C43.0641 5.34 42.9201 5.496 42.7441 5.712C42.5761 5.92 42.3921 6.144 42.1921 6.384C42.0001 6.616 41.8121 6.816 41.6281 6.984C41.4521 7.152 41.3001 7.236 41.1721 7.236C40.9961 7.236 40.8521 7.176 40.7401 7.056C40.6361 6.928 40.5841 6.776 40.5841 6.6C40.5841 6.36 40.6521 6.104 40.7881 5.832C40.9241 5.552 41.1001 5.284 41.3161 5.028C41.5401 4.764 41.7801 4.524 42.0361 4.308C42.3001 4.092 42.5561 3.92 42.8041 3.792C43.0601 3.664 43.2881 3.6 43.4881 3.6C43.7041 3.6 43.8801 3.652 44.0161 3.756C44.1521 3.852 44.2201 4 44.2201 4.2C44.2201 4.232 44.2121 4.292 44.1961 4.38C44.1881 4.468 44.1601 4.512 44.1121 4.512C44.0881 4.512 44.0481 4.476 43.9921 4.404C43.9441 4.332 43.8761 4.26 43.7881 4.188C43.7001 4.116 43.5881 4.08 43.4521 4.08C43.2281 4.08 42.9921 4.164 42.7441 4.332C42.5041 4.492 42.2721 4.7 42.0481 4.956C41.8241 5.204 41.6281 5.46 41.4601 5.724C41.2921 5.988 41.1641 6.216 41.0761 6.408C41.0521 6.464 41.0281 6.524 41.0041 6.588C40.9881 6.652 40.9801 6.716 40.9801 6.78C40.9801 6.852 41.0001 6.888 41.0401 6.888C41.0801 6.888 41.1641 6.844 41.2921 6.756C41.4281 6.668 41.5241 6.604 41.5801 6.564C41.8601 6.364 42.1241 6.136 42.3721 5.88C42.6281 5.624 42.8561 5.36 43.0561 5.088C43.1201 5 43.1801 4.912 43.2361 4.824C43.2921 4.736 43.3481 4.652 43.4041 4.572C43.4441 4.516 43.4841 4.488 43.5241 4.488C43.6121 4.488 43.6961 4.548 43.7761 4.668C43.8641 4.788 43.9081 4.892 43.9081 4.98C43.9081 5.02 43.9001 5.044 43.8841 5.052C43.8761 5.06 43.8521 5.084 43.8121 5.124C43.6921 5.244 43.5721 5.412 43.4521 5.628C43.3401 5.844 43.2401 6.064 43.1521 6.288C43.0721 6.504 43.0121 6.688 42.9721 6.84C42.9641 6.864 42.9561 6.896 42.9481 6.936C42.9481 6.968 42.9681 6.98 43.0081 6.972C43.0881 6.948 43.2161 6.86 43.3921 6.708C43.5761 6.548 43.7721 6.368 43.9801 6.168C44.1961 5.96 44.3881 5.768 44.5561 5.592C44.7321 5.416 44.8481 5.292 44.9041 5.22C44.9201 5.204 44.9361 5.188 44.9521 5.172C44.9761 5.148 45.0001 5.136 45.0241 5.136C45.0801 5.136 45.1081 5.164 45.1081 5.22C45.1081 5.252 45.0441 5.348 44.9161 5.508C44.7881 5.66 44.6281 5.84 44.4361 6.048C44.2441 6.248 44.0481 6.448 43.8481 6.648C43.6481 6.84 43.4721 7.004 43.3201 7.14C43.1761 7.268 43.0841 7.332 43.0441 7.332ZM45.9895 7.368C45.8615 7.368 45.7255 7.304 45.5815 7.176C45.4455 7.04 45.3775 6.908 45.3775 6.78C45.3775 6.62 45.4335 6.44 45.5455 6.24C45.6575 6.032 45.7895 5.832 45.9415 5.64C46.0935 5.448 46.2255 5.284 46.3375 5.148C46.4495 5.004 46.5055 4.908 46.5055 4.86V4.836C46.4335 4.772 46.3655 4.712 46.3015 4.656C46.2375 4.592 46.1495 4.56 46.0375 4.56C45.9575 4.56 45.8535 4.608 45.7255 4.704C45.6055 4.8 45.4815 4.912 45.3535 5.04C45.2255 5.168 45.1095 5.288 45.0055 5.4C44.9015 5.512 44.8255 5.588 44.7775 5.628C44.7455 5.66 44.7135 5.68 44.6815 5.688C44.6575 5.696 44.6375 5.7 44.6215 5.7C44.5895 5.7 44.5735 5.684 44.5735 5.652C44.5735 5.62 44.5895 5.588 44.6215 5.556C44.7495 5.388 44.8975 5.216 45.0655 5.04C45.2335 4.864 45.3855 4.704 45.5215 4.56C45.6575 4.408 45.7375 4.3 45.7615 4.236C45.8255 4.052 45.8895 3.888 45.9535 3.744C46.0255 3.6 46.1375 3.464 46.2895 3.336C46.3535 3.272 46.4295 3.22 46.5175 3.18C46.6055 3.14 46.6935 3.12 46.7815 3.12C46.8615 3.12 46.9255 3.144 46.9735 3.192C47.0295 3.232 47.0575 3.296 47.0575 3.384C47.0575 3.48 47.0135 3.576 46.9255 3.672C46.8455 3.768 46.7495 3.86 46.6375 3.948C46.5255 4.028 46.4255 4.1 46.3375 4.164C46.2575 4.228 46.2215 4.28 46.2295 4.32C46.2775 4.352 46.3695 4.392 46.5055 4.44C46.6495 4.488 46.7495 4.512 46.8055 4.512C46.8695 4.512 46.9295 4.5 46.9855 4.476C47.0415 4.452 47.0975 4.44 47.1535 4.44C47.2335 4.44 47.3135 4.464 47.3935 4.512C47.4735 4.56 47.5135 4.632 47.5135 4.728C47.5135 4.808 47.4815 4.884 47.4175 4.956C47.3615 5.02 47.3015 5.076 47.2375 5.124C47.1415 5.196 47.0135 5.304 46.8535 5.448C46.6935 5.592 46.5295 5.752 46.3615 5.928C46.2015 6.104 46.0615 6.28 45.9415 6.456C45.8295 6.624 45.7735 6.772 45.7735 6.9C45.7735 6.932 45.7815 6.964 45.7975 6.996C45.8055 7.004 45.8215 7.008 45.8455 7.008C46.0055 7.008 46.1855 6.936 46.3855 6.792C46.5855 6.648 46.7855 6.472 46.9855 6.264C47.1935 6.056 47.3855 5.852 47.5615 5.652C47.7455 5.444 47.9015 5.284 48.0295 5.172C48.0455 5.156 48.0655 5.14 48.0895 5.124C48.1135 5.108 48.1375 5.1 48.1615 5.1C48.2015 5.1 48.2215 5.128 48.2215 5.184C48.2215 5.216 48.1655 5.296 48.0535 5.424C47.9495 5.552 47.8135 5.704 47.6455 5.88C47.4775 6.056 47.3015 6.236 47.1175 6.42C46.9415 6.604 46.7775 6.768 46.6255 6.912C46.4735 7.048 46.3655 7.144 46.3015 7.2C46.2135 7.272 46.1495 7.316 46.1095 7.332C46.0695 7.356 46.0295 7.368 45.9895 7.368ZM50.3678 2.7C50.1838 2.7 50.0918 2.632 50.0918 2.496C50.0918 2.4 50.1438 2.296 50.2478 2.184C50.3518 2.072 50.5038 1.992 50.7038 1.944C50.8238 1.912 50.9198 1.896 50.9918 1.896C51.0718 1.888 51.1478 1.872 51.2198 1.848C51.1878 2 51.1198 2.164 51.0158 2.34C50.9198 2.516 50.7918 2.624 50.6318 2.664C50.5518 2.688 50.4638 2.7 50.3678 2.7ZM48.4478 7.476C48.3198 7.476 48.1998 7.424 48.0878 7.32C47.9838 7.216 47.9198 7.104 47.8958 6.984C47.9198 6.832 47.9718 6.648 48.0518 6.432C48.1398 6.208 48.2398 5.976 48.3518 5.736C48.4638 5.496 48.5758 5.272 48.6878 5.064C48.7998 4.848 48.8958 4.676 48.9758 4.548C48.8238 4.684 48.6598 4.836 48.4838 5.004C48.3158 5.172 48.1558 5.328 48.0038 5.472C47.9958 5.48 47.9758 5.496 47.9438 5.52C47.9198 5.544 47.8958 5.556 47.8718 5.556C47.8158 5.556 47.7878 5.532 47.7878 5.484C47.7878 5.444 47.8038 5.408 47.8358 5.376C48.0518 5.136 48.2758 4.896 48.5078 4.656C48.7478 4.416 48.9798 4.168 49.2038 3.912C49.2758 3.824 49.3358 3.756 49.3838 3.708C49.4398 3.652 49.5238 3.624 49.6358 3.624C49.6838 3.624 49.7558 3.636 49.8518 3.66C49.9558 3.676 50.0398 3.708 50.1038 3.756C50.1758 3.804 50.1878 3.864 50.1398 3.936C50.0838 4.024 49.9878 4.168 49.8518 4.368C49.7158 4.568 49.5598 4.796 49.3838 5.052C49.2158 5.308 49.0478 5.568 48.8798 5.832C48.7198 6.088 48.5878 6.32 48.4838 6.528C48.3798 6.736 48.3278 6.892 48.3278 6.996C48.3278 7.044 48.3438 7.068 48.3758 7.068C48.4238 7.068 48.5038 7.024 48.6158 6.936C48.7358 6.848 48.8518 6.756 48.9638 6.66C49.0838 6.556 49.1638 6.488 49.2038 6.456C49.4358 6.256 49.6638 6.052 49.8878 5.844C50.1118 5.628 50.3238 5.404 50.5238 5.172C50.5398 5.156 50.5598 5.132 50.5838 5.1C50.6158 5.068 50.6478 5.052 50.6798 5.052C50.7198 5.052 50.7398 5.076 50.7398 5.124C50.7398 5.18 50.7198 5.236 50.6798 5.292C50.5758 5.42 50.4598 5.548 50.3318 5.676C50.2038 5.796 50.0838 5.916 49.9718 6.036C49.7638 6.244 49.5598 6.452 49.3598 6.66C49.1678 6.86 48.9758 7.068 48.7838 7.284C48.7438 7.332 48.6918 7.376 48.6278 7.416C48.5718 7.456 48.5118 7.476 48.4478 7.476Z" fill="black"/>
</svg>
